<mxfile host="app.diagrams.net" modified="2023-10-09T14:32:56.320Z" agent="Mozilla/5.0 (Windows NT 10.0; Win64; x64) AppleWebKit/537.36 (KHTML, like Gecko) Chrome/117.0.0.0 Safari/537.36 Edg/117.0.2045.47" version="21.6.2" etag="_dZhBVGbGlLtTVZ7KGZu" type="github">
  <diagram name="第 1 页" id="eILqTjrrXABp9R6LLuBE">
    <mxGraphModel>
      <root>
        <mxCell id="0" />
        <mxCell id="1" parent="0" />
      </root>
    </mxGraphModel>
  </diagram>
</mxfile>
